<?xml version="1.0" encoding="iso-8859-1"?>
<!-- Uploaded to: SVG Repo, www.svgrepo.com, Generator: SVG Repo Mixer Tools -->
<!DOCTYPE svg PUBLIC "-//W3C//DTD SVG 1.1//EN" "http://www.w3.org/Graphics/SVG/1.1/DTD/svg11.dtd">
<svg fill="#fff" height="800px" width="800px" version="1.1" id="Capa_1" xmlns="http://www.w3.org/2000/svg" xmlns:xlink="http://www.w3.org/1999/xlink" 
	 viewBox="0 0 333.777 333.777" xml:space="preserve">
<path d="M313.211,277.262h-7.249v-8.579h-7.238V161.788c1.809,0.802,3.808,1.253,5.915,1.253c8.082,0,14.636-6.553,14.636-14.636
	c0-3.292-1.1-6.319-2.935-8.762h2.772l9.858-30.717L176.746,0h-19.716L4.806,108.926l9.858,30.717h2.772
	c-1.835,2.442-2.935,5.469-2.935,8.762c0,8.083,6.554,14.636,14.636,14.636c2.107,0,4.106-0.45,5.915-1.253v106.895h-7.238v8.579
	h-7.249v12.218h-8.841v44.297h310.328V289.48h-8.841V277.262z M254.033,163.041c2.107,0,4.106-0.45,5.915-1.253v106.895h-7.238
	v8.579h-7.249v12.218h-44.697v-12.218h-7.249v-8.579h-7.238V161.788c1.808,0.802,3.808,1.253,5.915,1.253
	c8.083,0,14.636-6.553,14.636-14.636c0-3.292-1.1-6.319-2.935-8.762h38.439c-1.836,2.442-2.936,5.469-2.936,8.762
	C239.396,156.488,245.949,163.041,254.033,163.041z M166.888,59.559c10.376,0,18.817,8.441,18.817,18.817
	c0,10.375-8.441,18.816-18.817,18.816c-10.376,0-18.817-8.441-18.817-18.816C148.071,68.001,156.512,59.559,166.888,59.559z
	 M204.482,105.762c5.618-7.69,8.944-17.155,8.944-27.386c0-3.967-0.502-7.819-1.44-11.499l54.341,38.884H204.482z M121.791,66.878
	c-0.938,3.679-1.44,7.531-1.44,11.499c0,10.231,3.327,19.696,8.944,27.386H67.45L121.791,66.878z M81.067,277.262v-8.579h-7.238
	V161.788c1.808,0.802,3.808,1.253,5.915,1.253c8.084,0,14.637-6.553,14.637-14.636c0-3.292-1.1-6.319-2.936-8.762h38.439
	c-1.835,2.442-2.935,5.469-2.935,8.762c0,8.083,6.553,14.636,14.636,14.636c2.107,0,4.107-0.45,5.915-1.253v106.895h-7.238v8.579
	h-7.249v12.218H88.316v-12.218H81.067z"/>
</svg>