<?xml version="1.0" standalone="no"?>
<!DOCTYPE svg PUBLIC "-//W3C//DTD SVG 20010904//EN"
 "http://www.w3.org/TR/2001/REC-SVG-20010904/DTD/svg10.dtd">
<svg version="1.0" xmlns="http://www.w3.org/2000/svg"
 width="70" height="70" viewBox="0 0 512.000000 512.000000"
 preserveAspectRatio="xMidYMid meet">

<g transform="translate(0.000000,512.000000) scale(0.100000,-0.100000)"
fill="#78be25" stroke="none">
<path d="M1231 5107 c-13 -6 -34 -25 -45 -40 l-21 -28 -3 -1160 -2 -1159 -408
-1 c-439 0 -459 -2 -496 -52 -20 -27 -21 -40 -21 -336 0 -280 2 -309 18 -335
36 -54 50 -56 497 -56 l410 0 0 -215 0 -215 -420 0 c-295 0 -427 -3 -444 -12
-58 -26 -61 -41 -64 -313 -3 -276 2 -312 51 -349 28 -20 40 -21 453 -24 l424
-3 0 -342 c0 -196 4 -357 10 -378 6 -19 22 -46 36 -60 l26 -24 321 -3 c177 -2
337 0 356 3 19 4 47 20 63 37 l28 30 0 369 0 369 939 2 c936 3 940 3 968 24
49 37 54 73 51 349 -3 222 -5 253 -21 277 -10 14 -26 30 -35 35 -9 4 -440 10
-957 13 l-940 5 -3 213 -2 212 632 0 c661 0 837 7 1003 41 241 49 461 145 639
278 438 330 648 816 606 1407 -27 368 -146 666 -369 919 -270 307 -628 481
-1080 525 -160 16 -2169 13 -2200 -3z m2016 -767 c150 -12 229 -32 349 -90
212 -102 361 -295 409 -529 20 -96 21 -285 1 -378 -66 -317 -303 -544 -635
-607 -70 -14 -181 -16 -727 -16 l-644 0 0 808 c0 445 3 812 7 815 10 11 1113
8 1240 -3z"/>
</g>
</svg>
