<svg width="25" height="23" viewBox="0 0 25 23" fill="none" xmlns="http://www.w3.org/2000/svg">
<g clip-path="url(#clip0_2_8)">
<path d="M24.154 9.4638C24.0734 9.23023 23.8589 9.06001 23.6007 9.02474L16.3479 8.03279L13.1043 1.84724C12.9889 1.62705 12.7506 1.48766 12.4897 1.48766C12.2288 1.48766 11.9905 1.62705 11.875 1.84724L8.63127 8.03279L1.3786 9.02474C1.12047 9.06001 0.905933 9.23023 0.825328 9.46375C0.744676 9.69732 0.811939 9.95369 0.998785 10.1251L6.24674 14.9399L5.00804 21.7385C4.9639 21.9805 5.06964 22.2251 5.2807 22.3695C5.4001 22.4511 5.54153 22.4926 5.68364 22.4926C5.79276 22.4926 5.90224 22.4682 6.0025 22.4185L12.4896 19.2086L18.9765 22.4185C19.2075 22.5328 19.4873 22.5137 19.6984 22.3694C19.9094 22.2251 20.0152 21.9805 19.9711 21.7384L18.732 14.9399L23.9805 10.125C24.1674 9.95369 24.2347 9.69732 24.154 9.4638Z" fill="#C4C4C4"/>
</g>
<defs>
<clipPath id="clip0_2_8">
<rect width="23.3958" height="22.0196" fill="white" transform="translate(0.791504 0.980408)"/>
</clipPath>
</defs>
</svg>
